<svg width="150" height="100" viewBox="0 0 150 100" fill="none" xmlns="http://www.w3.org/2000/svg">
<path d="M75.9138 53.1113H77.7107L77.6325 50.9699L75.9138 53.1113Z" fill="#E60013"/>
<path d="M86.1667 41.5671C81.3766 46.2312 74.2164 43.2532 74.9451 37.5281C75.5072 33.1141 80.9183 28.7184 85.0131 26.3309C85.0355 26.3218 85.0314 26.2944 85.0152 26.2811C84.4816 25.7719 83.3677 24.6164 82.6511 23.7484C80.6662 21.361 77.1923 21.2604 75.1179 23.8795L63.3363 24.9782C63.2906 24.9833 63.2906 25.0503 63.3363 25.0514L75.9676 25.7821C78.2107 25.9102 78.9394 27.9408 76.7776 29.5782C68.7555 35.6529 67.3265 42.0875 69.1194 47.1855C69.1306 47.2191 69.0798 47.2435 69.0594 47.215C68.3205 46.1712 67.7707 44.8936 67.4709 43.5551C63.6168 41.1331 60.4895 36.524 60.4895 30.8344C60.4895 22.5623 67.231 15.7527 75.5702 15.7527C83.9094 15.7527 90.6509 22.5623 90.6509 30.8344C90.6509 35.3084 88.6913 39.1096 86.1667 41.5671ZM89.1141 55.7168H81.8635L84.4338 49.019H87.6292L85.5965 54.297H89.6589L89.1141 55.7168ZM77.8092 55.7168L77.7604 54.3986H74.874L73.8119 55.7168H71.1755L76.5256 49.516C76.7797 49.2203 77.1588 49.019 77.5074 49.019H80.3643L81.0057 55.7168H77.8092ZM66.8763 55.9434C66.0165 55.9434 65.2694 55.854 64.6545 55.7168L65.2003 54.2939C66.6618 54.4657 67.914 54.3386 68.4059 53.0621L69.9569 49.019H73.1503L71.4418 53.4747C70.5657 55.7524 68.41 55.9434 66.8763 55.9434V55.9434ZM98.9067 40.6615C99.0602 39.1777 99.0195 37.0514 98.7898 35.4802C98.7898 35.4497 98.7563 35.4497 98.7502 35.4802C98.2715 37.7619 96.7927 40.8516 93.6024 43.3742C93.5729 43.3976 93.5393 43.3579 93.5668 43.3285C96.3618 40.3424 98.0357 36.6612 98.2939 32.8671C97.7653 30.7805 96.9472 28.76 95.9156 26.9773C95.9014 26.953 95.8739 26.9611 95.88 26.9916C96.4492 30.8232 95.5405 35.8826 91.8217 39.9887C91.7983 40.0172 91.7587 39.9836 91.778 39.9531C94.9805 35.344 95.8139 29.7306 94.4185 24.6844C90.1508 18.9136 83.2986 15.1704 75.5702 15.1704C67.8428 15.1704 60.9906 18.9136 56.7239 24.6844C55.3244 29.7306 56.1588 35.344 59.3604 39.9531C59.3837 39.9836 59.3421 40.0172 59.3207 39.9887C55.6009 35.8826 54.6953 30.8232 55.2634 26.9916C55.2675 26.9611 55.239 26.953 55.2258 26.9773C54.1932 28.76 53.375 30.7805 52.8496 32.8671C53.1077 36.6612 54.7766 40.3424 57.5756 43.3285C57.6031 43.3579 57.5695 43.3976 57.5401 43.3742C54.3477 40.8516 52.8689 37.7619 52.3912 35.4802C52.3851 35.4497 52.3526 35.4497 52.3516 35.4802C52.1209 37.0514 52.0812 39.1777 52.2357 40.6615C53.0396 43.1851 54.7614 45.3012 56.5217 46.8267C56.5512 46.8522 56.5237 46.8959 56.4902 46.8755C54.5225 45.6508 53.4248 44.4536 52.6727 43.3976C52.6585 43.3742 52.6351 43.3844 52.6392 43.4098C54.799 53.929 64.2297 62.0273 75.5702 62.0273C86.9107 62.0273 96.3404 53.929 98.5042 43.4098C98.5083 43.3844 98.4839 43.3742 98.4697 43.3976C97.7196 44.4536 96.6179 45.6508 94.6512 46.8755C94.6167 46.8959 94.5892 46.8522 94.6207 46.8267C96.3801 45.3012 98.1007 43.1851 98.9067 40.6615" fill="#E60013"/>
<path d="M134.627 76.6682C133.952 78.4214 131.627 78.9641 129.116 78.9641C126.602 78.9641 124.992 78.4193 125.371 76.6682H128.562C128.479 77.1367 128.761 77.4355 129.705 77.4355C130.648 77.4355 131.258 77.1296 131.432 76.6682C131.873 75.5248 125.557 76.6428 126.563 74.0226C127.125 72.557 129.342 71.8679 131.842 71.8679C134.339 71.8679 135.762 72.4086 135.46 74.0216H132.33C132.379 73.5906 132.246 73.2624 131.307 73.2624C130.365 73.2624 129.863 73.5967 129.699 74.0226C129.245 75.1914 135.629 74.0541 134.627 76.6682Z" fill="black"/>
<path d="M78.7629 78.7666H75.5706L78.1419 72.0729H81.3333L78.7629 78.7666Z" fill="black"/>
<path d="M102.907 78.7666H99.7167L102.286 72.0729H105.475L102.907 78.7666Z" fill="black"/>
<path d="M123.47 78.7666H115.713L118.28 72.0729H126.043L125.549 73.3576H120.979L120.461 74.7093H124.26L123.768 75.992H119.969L119.449 77.3478H124.016L123.47 78.7666Z" fill="black"/>
<path d="M60.0417 78.7666H57.4612L55.2954 74.813L53.7769 78.7666H51.2025L53.7688 72.0729H56.7681L58.6819 75.5905L60.0296 72.0729H62.6101L60.0417 78.7666Z" fill="black"/>
<path d="M113.732 78.7666H111.149L108.985 74.813L107.467 78.7666H104.89L107.461 72.0729H110.458L112.37 75.5905L113.717 72.0729H116.302L113.732 78.7666Z" fill="black"/>
<path d="M21.2791 76.5265C20.406 78.8021 18.2514 78.9922 16.7177 78.9922C15.8578 78.9922 15.1139 78.9048 14.5 78.7676L15.0437 77.3487C16.5073 77.5195 17.7574 77.3904 18.2463 76.1149L19.7983 72.0739H22.9927L21.2791 76.5265Z" fill="black"/>
<path d="M39.5973 74.2052C39.4072 74.6941 38.8056 75.0518 38.2232 75.0518H36.4527L37.1022 73.3576H38.8808C39.4581 73.3576 39.7823 73.7184 39.5973 74.2052ZM39.3666 72.0729H34.4048L31.8334 78.7666H35.0257L35.9608 76.3365H37.7333C40.6828 76.3365 42.2713 75.5478 42.7856 74.2052C43.3019 72.8646 42.3211 72.0729 39.3666 72.0729" fill="black"/>
<path d="M88.5034 74.2052C88.3144 74.6941 87.7117 75.0518 87.1334 75.0518H85.3588L86.0103 73.3576H87.7869C88.3682 73.3576 88.6924 73.7184 88.5034 74.2052ZM88.2747 72.0729H83.3129L80.7435 78.7666H83.9359L84.8669 76.3365H85.8294L86.4626 78.7666H89.9487L89.0949 76.0936C90.5087 75.7633 91.3482 75.1118 91.6937 74.2052C92.2111 72.8646 91.2293 72.0729 88.2747 72.0729Z" fill="black"/>
<path d="M95.2687 77.3478L97.2974 72.0739H94.105L91.5387 78.7666H98.7823L99.328 77.3478H95.2687Z" fill="black"/>
<path d="M25.9402 76.1637L27.6568 74.0223L27.7371 76.1637H25.9402ZM30.3888 72.0729H27.5318C27.1852 72.0729 26.8061 72.2762 26.552 72.5679L21.204 78.7666H23.8424L24.9025 77.4484H27.7839L27.8377 78.7666H31.0281L30.3888 72.0729Z" fill="black"/>
<path d="M45.3045 76.1637L47.0231 74.0223L47.1014 76.1637H45.3045ZM49.7531 72.0729H46.8961C46.5516 72.0729 46.1725 72.2762 45.9163 72.5679L40.5703 78.7666H43.2047L44.2678 77.4484H47.1482L47.198 78.7666H50.3924L49.7531 72.0729Z" fill="black"/>
<path d="M69.6729 76.1637L71.3915 74.0223L71.4718 76.1637H69.6729ZM74.1235 72.0729H71.2665C70.9179 72.0729 70.5408 72.2762 70.2847 72.5679L64.9366 78.7666H67.5751L68.6352 77.4484H71.5165L71.5684 78.7666H74.7587L74.1235 72.0729Z" fill="black"/>
</svg>
