<svg width="150" height="100" viewBox="0 0 150 100" fill="none" xmlns="http://www.w3.org/2000/svg">
<path fill-rule="evenodd" clip-rule="evenodd" d="M0 40.5056H10.2899V46.7923H10.369L18.245 40.5056H29.8021L20.3034 48.2014L31.2665 58.7889H18.245L10.3702 51.3087H10.2899V58.7889H0V40.5045V40.5056ZM46.187 40C57.9023 40 61.0686 42.2037 61.0686 49.6828C61.0686 57.1619 57.9023 59.3668 46.187 59.3668C34.4716 59.4023 31.2665 57.1986 31.2665 49.6828C31.2665 42.2037 34.4716 40 46.187 40ZM46.187 55.6083C50.7787 55.6083 50.4622 51.0197 50.4622 49.5028C50.4622 47.9847 50.5011 43.7929 46.187 43.7929C41.8729 43.7929 41.913 47.9847 41.913 49.5028C41.8729 51.0197 41.5965 55.6083 46.187 55.6083ZM83.2722 51.9244H75.6738V58.8978H65.1051V40.6146H75.6726V46.9012H83.271V40.6146H93.8384V58.8955H83.2722V51.9244ZM98.8646 40.6146H109.71V54.5248C109.71 54.5248 118.338 54.5615 119.486 54.5615C120.632 54.5615 121.307 53.6213 121.307 53.6213V58.8611H98.8634V40.6146H98.8646ZM146.556 46.6845C144.301 45.0587 142.4 44.5519 140.343 44.5175C138.325 44.4808 136.464 45.1309 136.464 46.2144C136.464 47.0812 137.849 47.4436 142.678 48.3471C146.635 49.1049 149.288 50.9119 149.288 54.2714C149.288 58.0666 142.203 60.2336 135.91 60.2336C131.476 60.2336 128.073 59.5113 125.026 58.2821V53.1524C126.926 54.9227 131.121 55.8617 134.366 55.8617C136.147 55.8617 137.058 55.6095 137.058 54.3448C137.058 53.5491 135.95 52.8267 132.546 52.2844C126.135 51.2364 123.957 49.575 123.957 46.7568C123.957 42.7094 129.577 40.3245 136.464 40.3245C140.185 40.3245 143.588 40.4334 146.596 41.6981V46.6845H146.556ZM115.29 48.0937L116.042 46.9368C113.825 45.9622 113.153 43.4328 114.3 41.987C115.527 40.4334 118.892 39.7833 120.752 42.1682C122.295 44.1907 120.831 45.9255 120.158 46.4311C119.407 46.9012 115.29 48.0937 115.29 48.0937ZM150 42.3493C150 43.035 149.406 43.5418 148.694 43.5418C147.942 43.5418 147.388 42.9994 147.388 42.3493C147.388 41.6614 147.982 41.1569 148.694 41.1569C149.406 41.1569 150 41.6614 150 42.3493ZM147.546 42.3493C147.546 42.9272 148.021 43.3962 148.654 43.3962C149.288 43.3962 149.763 42.9261 149.763 42.3482C149.763 41.7703 149.288 41.3002 148.654 41.3002C148.021 41.3369 147.546 41.7703 147.546 42.3482V42.3493ZM148.377 43.0717H148.179V41.6614H148.773C149.128 41.6614 149.288 41.807 149.288 42.0592C149.288 42.3115 149.089 42.4204 148.891 42.4571L149.367 43.0717H149.128L148.694 42.4571H148.377V43.0717ZM148.615 42.2759C148.852 42.2759 149.089 42.2759 149.089 42.0237C149.089 41.8425 148.931 41.7715 148.733 41.7715H148.377V42.2404H148.615V42.2759Z" fill="#444444"/>
</svg>
